<?xml version="1.0" encoding="utf-8"?>
<!-- Svg Vector Icons : http://www.onlinewebfonts.com/icon -->
<!DOCTYPE svg PUBLIC "-//W3C//DTD SVG 1.1//EN" "http://www.w3.org/Graphics/SVG/1.1/DTD/svg11.dtd">
<svg version="1.1" xmlns="http://www.w3.org/2000/svg" xmlns:xlink="http://www.w3.org/1999/xlink" x="0px" y="0px" viewBox="0 0 1000 1000" enable-background="new 0 0 1000 1000" xml:space="preserve">
<metadata> Svg Vector Icons : http://www.onlinewebfonts.com/icon </metadata>
<g><path d="M405.1,304.4c0,19.7,12.9,35.6,28.7,35.6c15.9,0,28.7-15.9,28.7-35.6c0-19.7-12.9-35.6-28.7-35.6C417.9,268.8,405.1,284.7,405.1,304.4z M433.8,274.5c13.3,0,24.2,13.4,24.2,29.9c0,16.5-10.8,29.9-24.2,29.9c-13.3,0-24.2-13.4-24.2-29.9C409.7,287.9,420.5,274.5,433.8,274.5z M358.9,170.5c25.4,0,46-25.5,46-56.9c0-31.4-20.6-56.9-46-56.9c-25.4,0-46,25.5-46,56.9C312.9,145,333.5,170.5,358.9,170.5z M358.9,65.6c21.3,0,38.7,21.4,38.7,47.9c0,26.4-17.3,47.9-38.7,47.9c-21.3,0-38.6-21.4-38.6-47.9C320.2,87.1,337.5,65.6,358.9,65.6z M295.8,303.6l-47.9-38.6C247.9,286.3,269.3,303.6,295.8,303.6z M363.1,148.8l-31-25C332,137.6,345.9,148.8,363.1,148.8z M887.7,421.2l-21.1-17C866.6,413.6,876,421.2,887.7,421.2z M788.7,323.9c20,0,36.2-20.1,36.2-44.8c0-24.7-16.2-44.8-36.2-44.8c-20,0-36.2,20.1-36.2,44.8C752.6,303.9,768.7,323.9,788.7,323.9z M788.7,241.4c16.8,0,30.4,16.9,30.4,37.7c0,20.8-13.6,37.7-30.4,37.7c-16.8,0-30.4-16.9-30.4-37.7S771.9,241.4,788.7,241.4z M884.3,437c17.7,0,32-17.8,32-39.7c0-21.9-14.3-39.7-32-39.7c-17.7,0-32,17.8-32,39.7C852.3,419.2,866.6,437,884.3,437z M884.3,364c14.9,0,26.9,14.9,26.9,33.3c0,18.4-12,33.4-26.9,33.4c-14.9,0-26.9-14.9-26.9-33.4C857.4,378.9,869.4,364,884.3,364z M570.8,294l-50.6-40.8C520.2,275.8,542.8,294,570.8,294z M438.3,324.6l-20.2-16.3C418.1,317.3,427.1,324.6,438.3,324.6z M561.1,325.8c39.9,0,72.2-40.1,72.2-89.5c0-49.4-32.3-89.5-72.2-89.5s-72.2,40.1-72.2,89.5C488.9,285.7,521.2,325.8,561.1,325.8z M561.1,161c33.5,0,60.7,33.7,60.7,75.2c0,41.6-27.2,75.2-60.7,75.2c-33.5,0-60.7-33.7-60.7-75.2C500.4,194.7,527.6,161,561.1,161z M794.6,307.1l-24.5-19.7C770.1,298.3,781.1,307.1,794.6,307.1z M661.7,164.4c0,14.3,14.4,25.9,32.1,25.9L661.7,164.4z M151.1,348.2c22.2,0,40.2-22.3,40.2-49.8c0-27.5-18-49.8-40.2-49.8c-22.2,0-40.2,22.3-40.2,49.8C110.9,325.9,128.9,348.2,151.1,348.2z M151.1,256.4c18.7,0,33.8,18.8,33.8,41.9c0,23.1-15.1,41.9-33.8,41.9c-18.7,0-33.8-18.8-33.8-41.9C117.3,275.2,132.4,256.4,151.1,256.4z M117.5,436.4l-21.1-17C96.4,428.8,105.8,436.4,117.5,436.4z M150.3,332.3l-24.7-30.6C125.6,318.6,136.6,332.3,150.3,332.3z M112,380.2c-15.9,0-28.7,15.9-28.7,35.6c0,19.7,12.9,35.6,28.7,35.6c15.9,0,28.7-15.9,28.7-35.6C140.8,396.1,127.9,380.2,112,380.2z M112,445.7c-13.3,0-24.2-13.4-24.2-29.9c0-16.5,10.8-29.9,24.2-29.9c13.3,0,24.2,13.4,24.2,29.9C136.2,432.3,125.4,445.7,112,445.7z M740.7,152.5c0-33.1-21.7-60-48.4-60c-26.7,0-48.4,26.9-48.4,60c0,33.1,21.7,60,48.4,60C719,212.5,740.7,185.6,740.7,152.5z M651.6,152.5c0-27.9,18.2-50.4,40.7-50.4c22.5,0,40.7,22.6,40.7,50.5c0,27.9-18.2,50.4-40.7,50.4C669.8,202.9,651.6,180.3,651.6,152.5z M284.4,327.1c34,0,61.6-34.1,61.6-76.3c0-42.1-27.6-76.3-61.6-76.3c-34,0-61.6,34.1-61.6,76.3C222.8,292.9,250.4,327.1,284.4,327.1z M284.4,186.7c28.6,0,51.8,28.7,51.8,64.1c0,35.4-23.2,64.1-51.8,64.1c-28.6,0-51.8-28.7-51.8-64.1C232.6,215.4,255.8,186.7,284.4,186.7z"/><path d="M592.5,497l128.9-90.3l-9.3-3.8l-128.9,90.3L592.5,497z M977.9,891.8c-5.2,9.5-10.1,10.3-29.7,9.5c-25.3-1-61.4,0-99.7,1.4c0,9.5,0.4,13.9,0.4,13.9c2.5,26,15.5,26.9,20.7,26.9h82.3c7.3,0,14,0,19.1-3.1c6.7-4,9.6-15.5,12.1-35.7c0.4-2.9,0.6-6.7,0.8-11.2v-0.2c0-1.4,0.2-3.1,0.2-5v-1.9c0-4.6,0-9.8-0.2-13.9C982.7,879.5,980.8,886.4,977.9,891.8z M51.3,901.2c-19.5,0.9-24.5,0-29.7-9.5c-2.9-5.3-4.8-12.2-5.9-19.3c0,4.1,0,9.3-0.2,13.9v1.9c0,1.9,0.2,3.6,0.2,5v0.2c0.2,4.5,0.4,8.3,0.8,11.2c2.5,20.2,5.2,32,12.1,35.7c5.7,3.1,11.9,3.1,19.1,3.1H130c5.2,0,18.2-0.9,20.7-26.9c0,0,0.4-4.5,0.4-13.9C112.8,901.2,76.6,900.2,51.3,901.2z M488.4,497l128.9-90.3l-9.3-3.8L479,493.2L488.4,497z M990,710.1c0-52.9-7.7-104.6-10.7-110.2c-2.3-4.1-17-15-50.5-35.5c-33.9-20.8-33.1-17.7-39.2-31.3c5.5-1.5,10.9-4.5,14.2-4.8c7.3-0.7,7.7,5.5,22.8,5.5c15.1,0,47.8-3.6,54.6-9.6c6.7-6,8.8-8.1,8.8-13.4c0-5.3-3.5-16.4-10-22.9c-6.5-6.5-34.3-9.8-50.5-11.7c-16.3-1.9-18.6,0-22.8,2.4c-6.7,3.8-7.1,38.4-7.1,38.4l-15.9,0.3c-10.3-22.9-24.7-69.1-47.1-105.4c-24.5-39.6-50.2-52-60.9-55.1c-10.5-2.9-20.1-5-91.9-11.5c-73.3-6.9-131.7-7.7-183.7-7.7c-52.1,0-110.4,1-183.7,7.7c-71.8,6.7-81.3,8.6-91.9,11.5c-10.5,2.9-36.4,15.5-60.9,55.1c-22.4,36.3-36.8,82.5-47.1,105.4l-15.9-0.3c0,0-0.2-34.6-7.1-38.4c-4.2-2.4-6.5-4.5-22.8-2.4c-16.3,2.1-44,5.2-50.5,11.7c-6.5,6.5-10,17.6-10,22.9s2.1,7.6,8.8,13.4c6.7,6,39.4,9.6,54.6,9.6s15.5-6.2,22.8-5.5c3.3,0.3,8.8,3.3,14.2,4.8c-6.3,13.6-5.4,10.5-39.2,31.3c-33.5,20.7-48.4,31.3-50.5,35.5C17.7,605.5,10,657.2,10,710.1c0,52.9,4.2,100.4,4.2,117.3c0,7.1,0,19.5,1.7,31.4c1.1,7.1,2.9,13.9,5.9,19.3c5.2,9.5,9.9,10.3,29.7,9.5c25.3-1,61.8,0,99.5,1.4c25.3,0.9,51.1,1.7,74.1,2.2c57.4,1,40.6-7.6,65.1-7.2c24.5,0.3,121.2,4,209.6,4c88.4,0,185.3-3.6,209.6-4c24.5-0.3,7.7,8.3,65.1,7.2c23-0.3,48.8-1.4,74.1-2.2c37.7-1.2,74.5-2.4,99.5-1.4c19.7,0.9,24.5,0,29.7-9.5c2.9-5.3,4.8-12.2,5.9-19.3c1.9-11.9,1.7-24.3,1.7-31.4C985.8,810.6,990,762.9,990,710.1z M175,449.3c9.2-19.3,36.7-58,50.1-64.9c3.3-1.7,31.8-9.8,103.2-14.1c65.7-4,138.2-5.5,171.9-5.5c33.7,0,106.2,1.6,171.9,5.5c71.2,4.3,100.1,12.2,103.2,14.1c17.2,10.7,41,45.6,50.2,64.9c9.2,19.3,21.4,57.2,19.1,62.4c-2.3,5.2,2.3,7.8-28.7,5.5c-30.8-2.1-224.3-4.3-315.4-4.3c-90.9,0-284.4,2.2-315.4,4.3c-31,2.1-26.4-0.3-28.7-5.5C153.6,506.5,165.8,468.7,175,449.3z M945.8,843.4V858H762.2L734,843.4H285.5L246.6,858H57.7c0,0-10.4-96.8,3.5-240.3c14.1-14.5,72.4-56.4,72.4-56.4l731,1.6c0,0,55.2,42.2,80.1,54.8C956.7,743.5,945.8,843.4,945.8,843.4z M734.9,743.3c-33.9-32.6-27.6-31.5-104.5-40.5c-66.6-7.6-117.3-8.1-130.3-8.1c-13.2,0-63.7,0.3-130.4,8.1c-76.9,9-70.6,7.9-104.5,40.5c-25.1,23.9,11.3,54.1,39.2,57.4c27.4,3.1,142,4.1,195.6,4.1c53.6,0,168.2-0.9,195.6-4.1C723.6,797.4,759.9,767.2,734.9,743.3z M787.7,637.8c-60.1,15-93.2,44.3-93.2,44.3s7.7,0,21.4,3.1c13.8,3.1,22,9.7,39.2,9.7c17.2,0,63.7-7.1,73.7-7.4c10-0.2,18.8,6.2,23.9,7.2c5.2,1,15.3-2.1,30.6-6.4c15.3-4.3,24.1-3.3,29.3-21.9c5.2-18.8,0-45.5,0-45.1C879.6,619.9,847.6,622.6,787.7,637.8z M304.8,682.8c0,0-33.3-29.1-93.2-44.3c-59.9-15.2-91.9-17.9-125-16.5c0,0-5.2,26.7,0,45.3c5,18.8,14,17.6,29.3,21.9c15.3,4.3,25.5,7.6,30.6,6.4c5.2-1.2,14-7.6,23.9-7.2c10,0.3,56.5,7.4,73.7,7.4c17.2,0.2,25.5-6.5,39.2-9.6C297.1,682.9,304.8,682.8,304.8,682.8z M499,406.7l-9.3-3.8l-128.9,90.3l9.4,3.8L499,406.7z"/></g>
</svg>